<?xml version="1.0" encoding="utf-8"?>
<!-- Generator: Adobe Illustrator 16.0.4, SVG Export Plug-In . SVG Version: 6.00 Build 0)  -->
<!DOCTYPE svg PUBLIC "-//W3C//DTD SVG 1.1//EN" "http://www.w3.org/Graphics/SVG/1.1/DTD/svg11.dtd">
<svg version="1.1" id="Ebene_1" xmlns="http://www.w3.org/2000/svg" xmlns:xlink="http://www.w3.org/1999/xlink" x="0px" y="0px"
	 width="18.575px" height="20px" viewBox="0 0 18.575 20" enable-background="new 0 0 18.575 20" xml:space="preserve">
<g>
	<g>
		<g>
			<g>
				<g>
					<path fill="#9FA4A8" d="M16.836,11.402c-0.127,0.047,0.117,0.154,0.051,0.312c-0.09-0.03-0.305,0.063-0.311-0.052
						c-0.152,0.175-0.371,0.027-0.622,0.104c0.045-0.167-0.171-0.07-0.157-0.207c-0.193-0.004-0.156,0.225-0.414,0.155
						c0.018,0.104-0.011,0.163-0.104,0.155c0.015,0.057,0.104,0.037,0.104,0.104c0.039,0.143-0.103,0.104-0.104,0.207
						c0.04,0.121,0.123,0.137,0.052,0.261c0.003-0.003-0.089,0.022-0.052,0.052c0.09,0.071-0.008,0.022-0.052,0.156
						c0.001,0.051,0.063,0.039,0.104,0.051c-0.099,0.092-0.006,0.262,0,0.416c0.006,0.119-0.092,0.365,0.053,0.363
						c-0.001,0.049-0.064,0.039-0.104,0.051c-0.008,0.133,0.117,0.305,0.156,0.385c-0.061,0.078-0.045,0.82-0.208,0.795
						c0.058,0.137,0.196,0.533-0.021,0.611c0.111,0.355,0.025,0.592,0.072,0.992c-0.113,0.111-0.363,0.084-0.363,0.311
						c-0.251-0.096,0.014,0.064-0.289,0.02c0.03-0.107-0.23-0.123-0.156-0.066c-0.022-0.131-0.09-0.041-0.124-0.162
						c0.164-1.086,0.104-3.75,0.051-4.752c-0.032-0.053-0.12-0.053-0.104-0.155c-0.206,0.022-0.717,0.159-0.83-0.053
						c-0.104,0.285-0.451,0.005-0.674,0.156c-0.094,0.001,0.081,0.244-0.054,0.312c-0.172,0.035-0.082-0.107-0.05-0.156
						c-0.256,0.097-0.102,0.344,0.05,0.311c0.012,0.199-0.042,0.02-0.155,0.053c0.13,0.172,0.14,0.551-0.103,0.623
						c0.022,0.064,0.066,0.105,0.154,0.104c-0.066,0.299-0.054,0.479,0,0.727c0.001,0.139-0.163,0.113-0.154,0.258
						c-0.024,0.111,0.073,0.1,0.154,0.104c0.055,0.293-0.195,0.709-0.052,0.945c-0.279-0.105,0.019,0.648-0.206,0.668
						c-0.019,0.088,0.04,0.1,0.104,0.104c-0.023,0.1-0.112,0.131-0.104,0.26c-0.185-0.006-0.229-0.1-0.312,0.053
						c-0.235-0.061-0.4-0.189-0.57-0.312c-0.046-0.119,0.043-0.215,0.054-0.311c0.045-0.531,0.061-1.688,0.05-2.08
						c-0.002-0.109,0.054-0.135,0.051-0.207c-0.002-0.156-0.127-0.408,0.106-0.57c-0.003-0.049-0.065-0.04-0.106-0.052
						c0.061-0.016-0.01-0.168,0-0.208c0.009-0.031,0.104-0.1,0.106-0.104c0.001-0.043-0.059-0.117-0.054-0.207
						c0.015-0.22,0.094-0.307-0.104-0.468c-0.067,0.054-0.191,0.052-0.259,0.104c-0.088,0.02-0.098-0.041-0.104-0.104
						c-0.295,0.097-0.797-0.026-1.245,0c0.113,0.175-0.078,0.331,0.104,0.415c-0.002,0.275-0.003,0.55-0.155,0.676
						c-0.035,0.125,0.087,0.232,0.103,0.361c0.016,0.135-0.045,0.252,0,0.312c-0.013,0.107-0.23,0.012-0.207,0.156
						c0.021,0.076,0.065-0.021,0.155,0c-0.178,0.559,0.036,1.021-0.208,1.398c-0.062-0.008-0.043-0.092-0.052-0.154
						c-0.091,0.049-0.18,0.098-0.155,0.262c-0.26,0.033-0.402-0.051-0.623-0.053c0.084-0.115-0.007-0.287-0.104-0.154
						c-0.075-0.014-0.121-0.43,0.051-0.363c0.045-0.27-0.117-0.74,0.157-0.781c-0.139-0.025-0.19-0.512,0.051-0.467
						c-0.075-0.477-0.14-0.966-0.104-1.556c0-0.155-0.244-0.065-0.311-0.156c-0.05,0.003-0.04,0.063-0.052,0.104
						c-0.735-0.09-1.332-0.013-1.868-0.104c-0.042,0.011-0.051,0.052-0.104,0.052c-0.012,0.553,0.03,1.094-0.104,1.4
						c0.223,0.117,0.01,0.342,0,0.623c-0.004,0.135,0.058,0.301,0.052,0.414c-0.017,0.332-0.037,0.797,0.052,1.246
						c-0.114,0.025-0.272,0.107-0.415,0.105c-0.084-0.002-0.102-0.078-0.207-0.105c-0.07-0.016-0.196,0.035-0.26,0
						c-0.128-0.068-0.098-0.27-0.259-0.258c-0.019-0.088,0.041-0.098,0.104-0.104c-0.027-0.098-0.101-0.191-0.104-0.26
						c-0.003-0.072,0.083-0.016,0.104-0.051c0.002-0.008-0.085-0.314,0.104-0.312c-0.027-0.385-0.13-0.695-0.104-1.246
						c0.029-0.127,0.264-0.047,0.209-0.26c-0.025-0.076-0.068,0.021-0.157,0c-0.08-0.138,0.125-0.074,0.157-0.155
						c0.002-0.007-0.052-0.112-0.054-0.155c-0.006-0.125,0.056-0.197,0.054-0.26C5.82,11.758,5.657,11.5,5.681,11.247
						c-0.141,0.133-0.395,0.014-0.519,0c-0.077-0.008-0.179,0.056-0.259,0.052c-0.112-0.004-0.243-0.064-0.467-0.052
						c-0.121,0.008-0.2,0.056-0.311,0.052c-0.129-0.004-0.258-0.016-0.415,0c-0.199,0.02-0.463,0.051-0.675,0.052
						c-0.047,0-0.112-0.057-0.207-0.052c-0.328,0.018-0.859,0.012-1.35,0c0.003-0.096-0.264-0.175-0.103-0.258
						c-0.083-0.073-0.165-0.148-0.259-0.209c0.127-0.145,0.546-0.081,0.778-0.104c0.063-0.006,0.094,0.053,0.104,0.052
						c0.239-0.018,0.452-0.112,0.675-0.103c0.087,0.002,0.099,0.023,0.104,0.103c0.085-0.121,0.357-0.058,0.467-0.155
						c0.328,0.278,0.553-0.06,0.83,0.155c0.129,0.008,0.215-0.026,0.259-0.103c0.163,0.044,0.43,0.172,0.519,0
						c0.177,0.104,0.146,0.06,0.363,0c0.033-0.009,0.178-0.052,0.156-0.052c0.042,0,0.051,0.058,0.103,0.052
						c0.224-0.026,0.373-0.085,0.571-0.052c0.096,0.015,0.293,0.051,0.415,0.052c0.111,0,0.68-0.096,0.778,0.103
						c0.434-0.127,0.652-0.06,0.986-0.155c0,0.052,0,0.104,0,0.155c0.092-0.128,0.086-0.076,0.208,0
						c0.142-0.027,0.217-0.199,0.259,0c0.057-0.013,0.035-0.103,0.103-0.103c0.157-0.053,0.093,0.115,0.104,0.207
						c0.123-0.016,0.117-0.16,0.208-0.207c0.129-0.008,0.214,0.026,0.259,0.103c0.246-0.025,0.624-0.072,1.09-0.052
						c0.089,0.004,0.182,0.056,0.259,0.052c0.109-0.006,0.103-0.09,0.155-0.103c0.022-0.006,0.07,0.047,0.104,0.05
						c0.088,0.014,0.113-0.051,0.207-0.05c0.152,0,0.191,0.115,0.312,0.103c0.182-0.02,0.367-0.097,0.519-0.103
						c0.188-0.008,0.465,0.063,0.622,0.05c0.212-0.015,0.428-0.025,0.78,0c0.073,0.006,0.152,0.057,0.207,0.053
						c0.063-0.005,0.066-0.091,0.103-0.104c0.024-0.008,0.066,0.051,0.105,0.051c0.04,0,0.051-0.051,0.103-0.051
						c0.319,0.003,0.636,0.192,0.934,0.051c0.063,0.023,0.106,0.067,0.104,0.156c0.055-0.171,0.157-0.043,0.311-0.052
						c0.118-0.007,0.266-0.114,0.365-0.104c0.044,0.005,0.08,0.048,0.153,0.053c0.079,0.004,0.207-0.053,0.208-0.053
						c0.145,0.013,0.184,0.109,0.26,0.104c0.023-0.001,0.137-0.039,0.104-0.052c0.289,0.119,0.338,0.337,0.57,0.519
						c0,0.088,0,0.173,0,0.26C16.891,11.521,16.861,11.463,16.836,11.402z M13.62,11.454c-0.016-0.014-0.08,0.025-0.053,0.053
						C13.582,11.521,13.647,11.482,13.62,11.454z M9.833,11.507c-0.014-0.015-0.079,0.024-0.052,0.052
						C9.794,11.572,9.858,11.533,9.833,11.507z M9.883,11.766c0.07-0.144-0.205-0.178-0.05-0.104
						C9.829,11.734,9.844,11.861,9.883,11.766z M15.072,11.662c-0.014-0.014-0.079,0.023-0.053,0.052
						C15.034,11.729,15.098,11.689,15.072,11.662z M9.883,11.869c-0.014-0.015-0.078,0.026-0.05,0.053
						C9.846,11.938,9.911,11.896,9.883,11.869z M6.148,12.18c-0.014-0.013-0.078,0.025-0.052,0.053
						C6.111,12.247,6.175,12.207,6.148,12.18z M12.583,12.544c-0.017-0.014-0.078,0.025-0.053,0.052
						C12.544,12.611,12.608,12.57,12.583,12.544z M9.833,12.803c-0.014-0.016-0.079,0.025-0.052,0.053
						C9.794,12.869,9.858,12.83,9.833,12.803z M12.375,13.219c0.145,0.084,0.144-0.225,0.051-0.209
						C12.43,13.102,12.415,13.172,12.375,13.219z M15.227,13.27c0.067-0.068,0.067-0.191-0.051-0.207
						C15.185,13.141,15.158,13.254,15.227,13.27z M5.784,13.115c-0.013-0.014-0.078,0.025-0.051,0.051
						C5.748,13.182,5.812,13.143,5.784,13.115z M5.784,13.479c-0.012-0.094,0.054-0.26-0.104-0.209
						C5.688,13.367,5.716,13.443,5.784,13.479z M5.784,13.582c-0.013-0.016-0.078,0.025-0.051,0.051
						C5.748,13.648,5.812,13.607,5.784,13.582z M6.044,13.736c0-0.027-0.042-0.059-0.052,0C5.992,13.766,6.035,13.797,6.044,13.736z
						 M5.838,14.049c-0.015-0.014-0.08,0.023-0.053,0.053C5.799,14.115,5.864,14.076,5.838,14.049z M12.269,14.33
						c-0.014-0.014-0.078,0.025-0.052,0.053C12.232,14.396,12.297,14.357,12.269,14.33z M12.425,14.486
						c0.004-0.031,0.008-0.061,0.053-0.051c-0.007-0.064-0.017-0.125-0.104-0.105C12.382,14.391,12.365,14.479,12.425,14.486z
						 M9.001,14.309c0-0.029-0.041-0.059-0.051,0C8.95,14.338,8.992,14.367,9.001,14.309z M12.375,14.537
						c-0.015-0.014-0.08,0.025-0.054,0.053C12.336,14.604,12.401,14.564,12.375,14.537z"/>
					<path fill="#9FA4A8" d="M8.689,3.279c-0.152-0.074,0.226-0.374,0.157-0.23c0.129,0.008,0.16-0.082,0.26-0.104
						c0.146,0.051,0.129,0.076,0.207,0.104c0.154-0.051,0.3,0.064,0.355,0.035c-0.011,0.097,0.012,0.15,0.06,0.328
						c0.006,0.15,0.221,0.09,0.208,0.259c-0.002,0.071,0.065,0.014,0.052,0c0.048,0.049-0.003,0.049,0,0.052
						c0.122,0.179,0.361,0.316,0.414,0.571c0.246,0.188,0.32,0.545,0.622,0.675c0.008,0.184,0.148,0.232,0.156,0.416
						c0.159,0.079,0.224,0.269,0.366,0.416c0.045,0.048,0.046,0.183,0.102,0.311c0.038,0.082,0.178,0.132,0.105,0.259
						c0.061,0.009,0.091-0.012,0.103-0.051c0.069,0.074,0.211,0.336,0.155,0.363c0.162,0.081,0.145,0.339,0.311,0.415
						c-0.153,0.205,0.22,0.222,0.054,0.415c0.255-0.027,0.027,0.133,0.258,0.156c-0.004,0.162,0.063,0.249,0.104,0.364
						c0,0.065,0.066,0.021,0.054,0c0.102,0.155,0.153,0.391,0.26,0.571c0.028,0.053,0.07,0.063,0.103,0.103
						c0.025,0.032,0.043,0.233,0.104,0.26c0.126,0.057,0.054,0.027,0.104,0.156c0.043,0.106,0.206,0.142,0.156,0.259
						c-0.247-0.058-0.116,0.265-0.26,0.311c-0.121-0.161-0.029-0.021-0.206,0c-0.069-0.311-0.42-0.342-0.417-0.727
						c-0.21-0.081-0.128-0.458-0.363-0.52c-0.006-0.304-0.111-0.508-0.311-0.622c0.009-0.232-0.192-0.423-0.312-0.623
						c-0.035-0.061-0.008-0.059-0.052-0.104c-0.035-0.038-0.047-0.156-0.104-0.259c-0.029-0.056-0.07-0.062-0.104-0.104
						c-0.031-0.042-0.017-0.109-0.051-0.156c-0.054-0.073-0.164-0.131-0.207-0.208c-0.022-0.04,0.019-0.113,0-0.155
						c-0.01-0.023-0.097-0.033-0.105-0.052c-0.016-0.042,0.024-0.117,0-0.155C11,5.964,10.953,5.945,10.92,5.902
						c-0.051-0.066-0.049-0.137-0.156-0.207c-0.069-0.047-0.05-0.096-0.103-0.156c-0.123-0.14-0.318-0.218-0.363-0.416
						c-0.186-0.104-0.281-0.355-0.362-0.519c-0.021-0.04-0.091-0.026-0.104-0.052C9.827,4.545,9.893,4.29,9.676,4.397
						c-0.04-0.254-0.267-0.321-0.363-0.518C9.164,3.924,9.02,4.063,8.897,4.19c-0.016,0.019,0.019,0.086,0,0.104
						c-0.015,0.017-0.088-0.017-0.104,0C8.768,4.324,8.728,4.448,8.69,4.501C8.617,4.608,8.548,4.688,8.431,4.814
						C8.389,4.857,8.369,4.925,8.275,4.917C8.064,5.328,7.846,5.733,7.445,5.955c0,0.173-0.168,0.178-0.155,0.363
						C7.248,6.346,7.204,6.373,7.134,6.37c-0.105,0.286-0.33,0.494-0.519,0.727c-0.095,0.119-0.163,0.242-0.26,0.363
						C6.258,7.582,6.12,7.661,6.044,7.771C6.003,7.83,6.035,7.92,5.992,7.979C5.888,8.12,5.731,8.206,5.629,8.393
						C5.6,8.448,5.604,8.564,5.473,8.55C5.463,8.782,5.266,8.826,5.214,9.016C4.961,9.017,4.711,8.871,4.487,8.704
						c0.075-0.269,0.378-0.312,0.416-0.622C4.948,8.042,5.02,8.026,5.11,8.03C5.284,7.737,5.389,7.375,5.681,7.2
						C5.667,7.095,5.706,7.059,5.732,6.993c0.004-0.011,0.033-0.126,0.052-0.155c0.011-0.017,0.091,0.015,0.104,0
						c0.044-0.053-0.036-0.202,0.104-0.156c0.005-0.142-0.086-0.104,0-0.208C6.074,6.478,6.19,6.449,6.2,6.525
						c0.098-0.006-0.058-0.09,0.062-0.075C6.225,6.208,6.464,5.897,6.562,5.747C6.605,5.683,6.678,5.625,6.771,5.54
						c0.009-0.008,0.098-0.044,0.104-0.052c0.043-0.062,0.022-0.135,0.154-0.104c0.063-0.103,0.015-0.225,0.053-0.311
						c0.008-0.021,0.175-0.04,0.104-0.155c0.069,0,0.138,0,0.208,0c0.099-0.005-0.062-0.173,0-0.312
						c0.092,0.029,0.076,0.213,0.155,0c0.002-0.002,0.025-0.09,0-0.052C7.644,4.406,7.819,4.426,7.86,4.294
						C7.842,4.222,7.769,4.29,7.756,4.346c-0.142-0.064,0.039-0.08,0.052-0.104C7.835,4.191,7.819,4.074,7.86,4.034
						c0.026-0.024,0.132,0.026,0.155,0c0.015-0.017-0.018-0.089,0-0.104c0.078-0.065,0.13,0.022,0.208-0.104
						c0.019-0.03,0.024-0.112,0.053-0.155C8.317,3.607,8.531,3.607,8.43,3.464C8.62,3.498,8.629,3.351,8.793,3.36
						c-0.077-0.162-0.223,0.152-0.31,0C8.647,3.265,8.81,3.507,8.689,3.279z M8.897,3.205C8.772,3.378,9.071,3.08,8.897,3.205
						L8.897,3.205z M8.223,3.983C8.209,3.968,8.145,4.008,8.172,4.034C8.186,4.05,8.25,4.009,8.223,3.983z M8.12,4.034
						C8.104,4.021,8.041,4.06,8.068,4.087C8.083,4.102,8.146,4.062,8.12,4.034z M7.757,4.553C7.742,4.539,7.678,4.579,7.704,4.605
						C7.719,4.621,7.783,4.581,7.757,4.553z M7.134,5.333C7.119,5.317,7.055,5.357,7.083,5.384C7.097,5.398,7.161,5.359,7.134,5.333
						z"/>
					<path fill="#9FA4A8" d="M3.139,11.61c0.01-0.06,0.052-0.028,0.051,0c0.158,0.019,0.53-0.013,0.727,0.104
						c0.033,1.114-0.064,1.925-0.104,3.009c0-0.012-0.086,0.025-0.052,0.051c0.027,0.023,0.06,0.049,0.052,0.105
						c-0.012,0.07-0.104,0.146-0.104,0.156c-0.006,0.191,0.115,0.174,0.104,0.34c-0.019,0.258-0.156,0.582-0.156,0.986
						c-0.064,0.07-0.129-0.008-0.208,0c-0.085,0.008-0.116,0.064-0.207,0.051c-0.008,0-0.129-0.188-0.312-0.104
						c-0.052-0.119-0.178-0.166-0.155-0.363c0.093-0.006,0.109,0.064,0.208,0.053c-0.022-0.062-0.066-0.107-0.156-0.104
						c0.137-0.104,0.095-0.256,0-0.416c-0.083-0.123,0.099-0.135,0.103-0.154c0.009-0.027-0.05-0.066-0.052-0.105
						c-0.001-0.105,0.134-0.158,0.104-0.311c-0.093-0.016-0.106,0.049-0.052,0.053c-0.113,0.133-0.169,0.004-0.104-0.135
						c0.004-0.006,0.104-0.055,0.104-0.053c0.002-0.262-0.1-0.57-0.052-0.83c0.032-0.17,0.149-0.332,0.208-0.414
						c0.023-0.312-0.035-0.441,0.103-0.57c-0.099,0.002-0.206-0.387,0-0.363c-0.124-0.01-0.07-0.363-0.051-0.623
						C3.153,11.788,3.211,11.636,3.139,11.61z M3.294,12.648C3.254,12.66,3.192,12.65,3.19,12.699
						C3.231,12.688,3.293,12.699,3.294,12.648z"/>
				</g>
			</g>
		</g>
	</g>
</g>
</svg>
