<?xml version="1.0" encoding="utf-8"?>
<!-- Generator: Adobe Illustrator 16.0.4, SVG Export Plug-In . SVG Version: 6.00 Build 0)  -->
<!DOCTYPE svg PUBLIC "-//W3C//DTD SVG 1.1//EN" "http://www.w3.org/Graphics/SVG/1.1/DTD/svg11.dtd">
<svg version="1.1" id="Ebene_1" xmlns="http://www.w3.org/2000/svg" xmlns:xlink="http://www.w3.org/1999/xlink" x="0px" y="0px"
	 width="30px" height="20px" viewBox="0 0 30 20" enable-background="new 0 0 30 20" xml:space="preserve">
<g>
	<g>
		<g>
			<g>
				<g>
					<path fill="#9FA4A8" d="M24.88,11.79c-0.155,0.058,0.146,0.189,0.064,0.385c-0.112-0.038-0.377,0.078-0.385-0.064
						c-0.188,0.217-0.46,0.034-0.77,0.128c0.056-0.206-0.211-0.086-0.193-0.256c-0.24-0.004-0.193,0.277-0.513,0.192
						c0.021,0.129-0.014,0.201-0.129,0.192c0.018,0.069,0.128,0.045,0.129,0.128c0.048,0.176-0.127,0.129-0.129,0.256
						c0.05,0.149,0.152,0.169,0.063,0.322c0.004-0.004-0.109,0.028-0.063,0.063c0.11,0.089-0.01,0.028-0.064,0.193
						c0.002,0.062,0.079,0.049,0.128,0.063c-0.121,0.113-0.007,0.324,0,0.514c0.008,0.148-0.113,0.452,0.065,0.449
						c-0.001,0.062-0.079,0.05-0.129,0.063c-0.01,0.163,0.145,0.377,0.193,0.477c-0.075,0.097-0.056,1.013-0.258,0.982
						c0.071,0.17,0.243,0.659-0.025,0.756c0.138,0.44,0.032,0.731,0.09,1.226c-0.141,0.138-0.449,0.105-0.449,0.385
						c-0.311-0.118,0.017,0.08-0.357,0.024c0.037-0.133-0.285-0.152-0.193-0.081c-0.027-0.162-0.111-0.052-0.153-0.2
						c0.202-1.344,0.128-4.639,0.062-5.878c-0.04-0.064-0.148-0.065-0.128-0.191c-0.255,0.028-0.887,0.197-1.026-0.065
						c-0.129,0.353-0.559,0.006-0.833,0.193c-0.116,0.001,0.1,0.302-0.066,0.385c-0.213,0.044-0.102-0.132-0.062-0.193
						c-0.316,0.12-0.125,0.425,0.062,0.385c0.014,0.246-0.052,0.024-0.192,0.065c0.16,0.212,0.173,0.68-0.127,0.77
						c0.027,0.079,0.082,0.131,0.19,0.128c-0.082,0.369-0.065,0.592,0,0.898c0.002,0.172-0.201,0.14-0.19,0.32
						c-0.03,0.137,0.091,0.123,0.19,0.128c0.068,0.361-0.241,0.877-0.063,1.169c-0.346-0.132,0.023,0.801-0.255,0.825
						c-0.023,0.109,0.05,0.123,0.128,0.128c-0.028,0.124-0.139,0.162-0.128,0.321c-0.229-0.007-0.282-0.124-0.387,0.065
						c-0.291-0.074-0.494-0.233-0.705-0.387c-0.057-0.147,0.054-0.267,0.066-0.385c0.056-0.657,0.075-2.085,0.062-2.57
						c-0.003-0.137,0.066-0.169,0.063-0.257c-0.003-0.192-0.157-0.506,0.131-0.706c-0.003-0.061-0.08-0.049-0.131-0.063
						c0.075-0.02-0.013-0.208,0-0.257c0.012-0.039,0.129-0.124,0.131-0.128c0.002-0.054-0.072-0.145-0.066-0.256
						c0.019-0.272,0.116-0.38-0.128-0.579c-0.083,0.066-0.236,0.064-0.32,0.129c-0.109,0.024-0.121-0.05-0.128-0.129
						c-0.365,0.119-0.986-0.032-1.54,0c0.14,0.216-0.097,0.41,0.128,0.514c-0.002,0.341-0.004,0.68-0.191,0.835
						c-0.043,0.155,0.108,0.287,0.128,0.448c0.02,0.166-0.056,0.31,0,0.385c-0.017,0.133-0.285,0.016-0.256,0.194
						c0.026,0.095,0.081-0.026,0.192,0c-0.22,0.691,0.044,1.263-0.257,1.729c-0.076-0.01-0.054-0.114-0.064-0.19
						c-0.113,0.059-0.222,0.12-0.192,0.322c-0.321,0.042-0.497-0.062-0.77-0.065c0.104-0.142-0.008-0.354-0.129-0.191
						c-0.093-0.017-0.149-0.529,0.063-0.449c0.056-0.333-0.145-0.915,0.194-0.965c-0.171-0.032-0.235-0.634,0.063-0.577
						c-0.093-0.59-0.173-1.194-0.129-1.924c0-0.192-0.302-0.081-0.385-0.193c-0.061,0.004-0.049,0.079-0.063,0.129
						c-0.909-0.111-1.647-0.016-2.31-0.129c-0.052,0.014-0.063,0.064-0.129,0.064c-0.015,0.683,0.038,1.353-0.128,1.732
						c0.275,0.145,0.012,0.422,0,0.77c-0.006,0.166,0.072,0.372,0.064,0.513c-0.021,0.41-0.046,0.984,0.064,1.541
						c-0.141,0.031-0.336,0.132-0.513,0.13c-0.104-0.004-0.125-0.098-0.256-0.13c-0.086-0.021-0.243,0.043-0.321,0
						c-0.158-0.086-0.121-0.334-0.321-0.32c-0.023-0.109,0.05-0.12,0.128-0.128c-0.034-0.119-0.125-0.237-0.128-0.32
						c-0.004-0.09,0.103-0.02,0.128-0.064c0.003-0.009-0.105-0.388,0.128-0.386c-0.034-0.476-0.161-0.859-0.128-1.541
						c0.036-0.155,0.327-0.058,0.258-0.32c-0.031-0.094-0.083,0.026-0.194,0c-0.099-0.171,0.155-0.093,0.194-0.192
						c0.002-0.009-0.063-0.139-0.066-0.192c-0.007-0.154,0.069-0.243,0.066-0.32c-0.022-0.332-0.224-0.65-0.194-0.963
						c-0.174,0.164-0.488,0.017-0.642,0c-0.095-0.01-0.222,0.068-0.321,0.063c-0.138-0.004-0.301-0.08-0.577-0.063
						c-0.15,0.01-0.247,0.069-0.385,0.063c-0.159-0.004-0.319-0.019-0.513,0c-0.247,0.024-0.573,0.062-0.835,0.064
						c-0.059,0-0.139-0.07-0.256-0.064c-0.406,0.022-1.062,0.015-1.668,0c0.004-0.117-0.327-0.216-0.127-0.319
						c-0.104-0.09-0.204-0.183-0.321-0.258c0.157-0.179,0.676-0.1,0.962-0.128c0.078-0.007,0.117,0.065,0.128,0.064
						c0.295-0.022,0.56-0.139,0.834-0.128c0.107,0.003,0.123,0.029,0.128,0.128c0.105-0.15,0.442-0.071,0.578-0.192
						c0.405,0.344,0.684-0.073,1.026,0.192c0.16,0.01,0.266-0.032,0.321-0.128c0.201,0.055,0.532,0.213,0.642,0
						c0.219,0.129,0.18,0.074,0.449,0c0.041-0.011,0.22-0.064,0.193-0.064c0.052,0,0.063,0.072,0.127,0.064
						c0.277-0.032,0.461-0.105,0.707-0.064c0.119,0.019,0.362,0.063,0.513,0.064c0.138,0,0.841-0.119,0.962,0.128
						c0.537-0.158,0.807-0.074,1.219-0.192c0,0.064,0,0.128,0,0.192c0.114-0.159,0.107-0.094,0.258,0
						c0.175-0.034,0.268-0.247,0.32,0c0.071-0.017,0.044-0.128,0.128-0.128c0.194-0.065,0.115,0.143,0.128,0.256
						c0.152-0.02,0.145-0.198,0.258-0.256c0.16-0.01,0.265,0.032,0.32,0.128c0.305-0.031,0.772-0.089,1.348-0.064
						c0.11,0.006,0.225,0.069,0.32,0.064c0.136-0.008,0.127-0.111,0.192-0.128c0.027-0.008,0.086,0.058,0.128,0.062
						c0.109,0.017,0.14-0.063,0.256-0.062c0.188,0,0.236,0.143,0.386,0.128c0.225-0.024,0.454-0.12,0.642-0.128
						c0.233-0.01,0.574,0.078,0.769,0.062c0.263-0.018,0.529-0.031,0.965,0c0.091,0.008,0.189,0.07,0.257,0.065
						c0.078-0.007,0.082-0.113,0.127-0.129c0.029-0.01,0.082,0.063,0.13,0.063c0.05,0,0.062-0.063,0.127-0.063
						c0.395,0.004,0.786,0.237,1.154,0.063c0.079,0.029,0.132,0.083,0.129,0.193c0.068-0.211,0.195-0.054,0.385-0.064
						c0.146-0.009,0.328-0.141,0.451-0.129c0.055,0.007,0.1,0.06,0.19,0.065c0.098,0.005,0.255-0.065,0.258-0.065
						c0.178,0.016,0.226,0.135,0.32,0.129c0.028-0.001,0.169-0.048,0.129-0.063c0.356,0.146,0.418,0.417,0.704,0.641
						c0,0.108,0,0.214,0,0.321C24.949,11.936,24.911,11.864,24.88,11.79z M20.903,11.854c-0.02-0.017-0.1,0.031-0.065,0.065
						C20.855,11.936,20.937,11.888,20.903,11.854z M16.22,11.919c-0.018-0.019-0.098,0.03-0.064,0.063
						C16.173,12,16.252,11.951,16.22,11.919z M16.282,12.238c0.086-0.177-0.253-0.219-0.062-0.128
						C16.215,12.2,16.234,12.356,16.282,12.238z M22.699,12.11c-0.018-0.017-0.098,0.03-0.065,0.064
						C22.651,12.192,22.731,12.145,22.699,12.11z M16.282,12.367c-0.018-0.019-0.097,0.032-0.062,0.064
						C16.236,12.451,16.316,12.4,16.282,12.367z M11.664,12.751c-0.018-0.016-0.097,0.031-0.064,0.065
						C11.618,12.834,11.697,12.785,11.664,12.751z M19.62,13.201c-0.02-0.017-0.097,0.031-0.064,0.063
						C19.573,13.284,19.652,13.233,19.62,13.201z M16.22,13.521c-0.018-0.019-0.098,0.032-0.064,0.064
						C16.173,13.604,16.252,13.555,16.22,13.521z M19.363,14.035c0.179,0.104,0.178-0.276,0.062-0.257
						C19.432,13.891,19.413,13.979,19.363,14.035z M22.891,14.1c0.084-0.085,0.084-0.238-0.062-0.257
						C22.839,13.939,22.805,14.08,22.891,14.1z M11.214,13.907c-0.017-0.018-0.096,0.031-0.063,0.064
						C11.168,13.99,11.248,13.941,11.214,13.907z M11.214,14.356c-0.015-0.114,0.066-0.321-0.128-0.257
						C11.095,14.219,11.129,14.314,11.214,14.356z M11.214,14.484c-0.017-0.018-0.096,0.031-0.063,0.063
						C11.168,14.567,11.248,14.517,11.214,14.484z M11.535,14.676c0-0.034-0.052-0.072-0.064,0
						C11.47,14.713,11.523,14.751,11.535,14.676z M11.28,15.062c-0.019-0.017-0.099,0.03-0.066,0.065
						C11.232,15.145,11.312,15.096,11.28,15.062z M19.233,15.411c-0.018-0.019-0.097,0.031-0.064,0.063
						C19.188,15.492,19.268,15.443,19.233,15.411z M19.426,15.603c0.005-0.039,0.01-0.074,0.065-0.062
						c-0.008-0.08-0.021-0.153-0.128-0.129C19.373,15.485,19.352,15.593,19.426,15.603z M15.191,15.384
						c0.001-0.037-0.051-0.072-0.062,0C15.129,15.419,15.18,15.456,15.191,15.384z M19.363,15.667
						c-0.019-0.018-0.099,0.031-0.066,0.064C19.316,15.749,19.396,15.699,19.363,15.667z"/>
					<path fill="#9FA4A8" d="M14.806,1.745C14.617,1.653,15.085,1.282,15,1.46c0.16,0.01,0.198-0.102,0.321-0.128
						c0.18,0.063,0.16,0.094,0.256,0.128c0.19-0.063,0.371,0.08,0.439,0.043c-0.014,0.12,0.015,0.185,0.074,0.406
						c0.008,0.185,0.273,0.111,0.257,0.321c-0.003,0.088,0.081,0.017,0.064,0c0.06,0.06-0.004,0.06,0,0.064
						c0.15,0.221,0.446,0.391,0.512,0.706c0.304,0.233,0.396,0.674,0.77,0.834c0.01,0.227,0.184,0.287,0.192,0.514
						c0.196,0.098,0.276,0.333,0.452,0.514c0.056,0.059,0.058,0.226,0.126,0.384c0.047,0.102,0.22,0.164,0.13,0.321
						c0.075,0.011,0.112-0.014,0.127-0.063c0.086,0.092,0.261,0.417,0.192,0.449c0.2,0.101,0.179,0.42,0.384,0.513
						c-0.189,0.253,0.271,0.275,0.066,0.513c0.315-0.034,0.034,0.164,0.318,0.193c-0.005,0.2,0.079,0.307,0.129,0.45
						c0,0.081,0.082,0.026,0.066,0c0.125,0.192,0.189,0.483,0.321,0.706c0.035,0.065,0.087,0.078,0.127,0.127
						c0.031,0.039,0.053,0.288,0.128,0.321c0.155,0.07,0.065,0.034,0.128,0.193c0.053,0.131,0.254,0.175,0.193,0.321
						c-0.306-0.072-0.145,0.327-0.321,0.385c-0.15-0.199-0.037-0.025-0.255,0c-0.086-0.385-0.52-0.423-0.517-0.899
						c-0.259-0.1-0.158-0.566-0.448-0.642c-0.008-0.375-0.139-0.629-0.385-0.77c0.011-0.287-0.237-0.523-0.385-0.771
						c-0.044-0.075-0.011-0.073-0.064-0.128c-0.043-0.046-0.059-0.193-0.128-0.32c-0.036-0.069-0.086-0.076-0.129-0.129
						c-0.039-0.051-0.021-0.135-0.063-0.193c-0.066-0.09-0.203-0.162-0.256-0.257c-0.027-0.049,0.023-0.14,0-0.192
						c-0.013-0.029-0.12-0.041-0.13-0.064c-0.02-0.051,0.03-0.145,0-0.192c-0.03-0.054-0.088-0.077-0.128-0.13
						c-0.063-0.082-0.061-0.169-0.193-0.256c-0.085-0.058-0.062-0.118-0.127-0.193c-0.151-0.173-0.394-0.27-0.449-0.514
						c-0.229-0.128-0.348-0.439-0.448-0.642c-0.026-0.05-0.112-0.032-0.128-0.064c-0.007-0.01,0.074-0.326-0.193-0.193
						c-0.049-0.313-0.33-0.396-0.449-0.641c-0.185,0.055-0.363,0.228-0.515,0.385c-0.02,0.023,0.023,0.107,0,0.128
						c-0.019,0.021-0.109-0.021-0.128,0c-0.031,0.037-0.081,0.19-0.128,0.257c-0.09,0.132-0.175,0.231-0.32,0.386
						C14.435,3.696,14.41,3.78,14.294,3.77c-0.261,0.509-0.531,1.009-1.027,1.284c0,0.214-0.208,0.22-0.191,0.449
						c-0.052,0.035-0.106,0.068-0.193,0.064c-0.13,0.354-0.408,0.61-0.641,0.898c-0.117,0.147-0.201,0.3-0.321,0.449
						c-0.12,0.152-0.291,0.25-0.385,0.386c-0.05,0.073-0.012,0.185-0.065,0.258c-0.128,0.174-0.322,0.28-0.449,0.512
						c-0.036,0.068-0.03,0.212-0.193,0.194c-0.012,0.287-0.256,0.342-0.32,0.576C10.195,8.84,9.887,8.659,9.61,8.453
						c0.093-0.333,0.468-0.387,0.514-0.77c0.057-0.05,0.145-0.069,0.256-0.064c0.215-0.363,0.345-0.81,0.706-1.027
						c-0.017-0.129,0.032-0.174,0.064-0.256c0.005-0.013,0.041-0.156,0.064-0.192c0.014-0.021,0.113,0.018,0.128,0
						c0.054-0.066-0.044-0.25,0.128-0.193c0.007-0.175-0.106-0.129,0-0.258c0.102,0.006,0.245-0.03,0.257,0.065
						c0.122-0.007-0.071-0.111,0.076-0.093c-0.045-0.301,0.251-0.684,0.373-0.87c0.053-0.079,0.143-0.152,0.257-0.257
						c0.011-0.01,0.121-0.055,0.129-0.064c0.053-0.076,0.027-0.167,0.19-0.129c0.078-0.126,0.018-0.278,0.065-0.385
						c0.01-0.025,0.217-0.049,0.128-0.192c0.085,0,0.17,0,0.256,0c0.123-0.007-0.076-0.214,0-0.386c0.114,0.036,0.094,0.263,0.192,0
						c0.002-0.003,0.031-0.112,0-0.064c0.117-0.182,0.334-0.158,0.385-0.321c-0.022-0.089-0.112-0.005-0.128,0.065
						c-0.175-0.08,0.048-0.099,0.064-0.129c0.034-0.063,0.014-0.208,0.064-0.257c0.032-0.03,0.164,0.032,0.192,0
						c0.019-0.021-0.021-0.111,0-0.129c0.096-0.081,0.161,0.027,0.257-0.128c0.023-0.037,0.03-0.139,0.065-0.192
						c0.052-0.08,0.316-0.08,0.191-0.257c0.234,0.042,0.246-0.139,0.448-0.128c-0.095-0.201-0.276,0.188-0.383,0
						C14.754,1.727,14.956,2.026,14.806,1.745z M15.063,1.652C14.909,1.867,15.279,1.498,15.063,1.652L15.063,1.652z M14.229,2.615
						c-0.017-0.019-0.097,0.03-0.063,0.063C14.184,2.697,14.263,2.646,14.229,2.615z M14.102,2.678
						c-0.019-0.016-0.098,0.031-0.064,0.065C14.056,2.761,14.135,2.712,14.102,2.678z M13.653,3.32
						c-0.019-0.018-0.097,0.031-0.065,0.064C13.606,3.403,13.685,3.354,13.653,3.32z M12.882,4.284
						c-0.018-0.019-0.097,0.03-0.063,0.064C12.836,4.365,12.916,4.316,12.882,4.284z"/>
					<path fill="#9FA4A8" d="M7.943,12.047c0.012-0.073,0.064-0.035,0.063,0c0.195,0.022,0.655-0.017,0.898,0.128
						c0.041,1.379-0.08,2.381-0.128,3.722c0-0.016-0.106,0.03-0.064,0.062c0.034,0.028,0.074,0.06,0.064,0.13
						c-0.014,0.086-0.128,0.181-0.128,0.192c-0.007,0.236,0.142,0.216,0.128,0.421c-0.022,0.319-0.193,0.719-0.192,1.219
						c-0.079,0.087-0.159-0.009-0.257,0c-0.105,0.011-0.144,0.081-0.256,0.064c-0.01-0.001-0.16-0.233-0.386-0.128
						c-0.065-0.148-0.221-0.206-0.191-0.45c0.115-0.008,0.135,0.079,0.256,0.065c-0.027-0.078-0.082-0.133-0.192-0.129
						c0.169-0.128,0.117-0.314,0-0.513c-0.103-0.153,0.122-0.168,0.127-0.192c0.011-0.032-0.062-0.081-0.064-0.129
						c-0.002-0.132,0.166-0.196,0.129-0.385c-0.115-0.019-0.131,0.06-0.064,0.064c-0.14,0.165-0.209,0.005-0.128-0.165
						c0.005-0.008,0.128-0.068,0.128-0.066c0.002-0.324-0.123-0.705-0.064-1.025c0.039-0.211,0.185-0.411,0.257-0.514
						c0.028-0.385-0.043-0.545,0.127-0.705c-0.123,0.004-0.254-0.478,0-0.449c-0.153-0.011-0.086-0.449-0.063-0.771
						C7.959,12.267,8.032,12.078,7.943,12.047z M8.135,13.33c-0.05,0.015-0.126,0.002-0.128,0.063
						C8.056,13.379,8.133,13.393,8.135,13.33z"/>
				</g>
			</g>
		</g>
	</g>
</g>
</svg>
